<?xml version="1.0" encoding="UTF-8" standalone="no"?>
<svg
   xmlns:dc="http://purl.org/dc/elements/1.1/"
   xmlns:cc="http://creativecommons.org/ns#"
   xmlns:rdf="http://www.w3.org/1999/02/22-rdf-syntax-ns#"
   xmlns:svg="http://www.w3.org/2000/svg"
   xmlns="http://www.w3.org/2000/svg"
   xmlns:sodipodi="http://sodipodi.sourceforge.net/DTD/sodipodi-0.dtd"
   xmlns:inkscape="http://www.inkscape.org/namespaces/inkscape"
   height="20pt"
   viewBox="0 -37 20.041141 20"
   width="20pt"
   version="1.1"
   id="svg8"
   sodipodi:docname="shopping-cart.svg"
   inkscape:version="0.92.4 (5da689c313, 2019-01-14)">
  <metadata
     id="metadata14">
    <rdf:RDF>
      <cc:Work
         rdf:about="">
        <dc:format>image/svg+xml</dc:format>
        <dc:type
           rdf:resource="http://purl.org/dc/dcmitype/StillImage" />
        <dc:title></dc:title>
      </cc:Work>
    </rdf:RDF>
  </metadata>
  <defs
     id="defs12" />
  <sodipodi:namedview
     pagecolor="#ffffff"
     bordercolor="#666666"
     borderopacity="1"
     objecttolerance="10"
     gridtolerance="10"
     guidetolerance="10"
     inkscape:pageopacity="0"
     inkscape:pageshadow="2"
     inkscape:window-width="1366"
     inkscape:window-height="706"
     id="namedview10"
     showgrid="false"
     inkscape:zoom="6.1834061"
     inkscape:cx="24.472203"
     inkscape:cy="13.487123"
     inkscape:window-x="-8"
     inkscape:window-y="-8"
     inkscape:window-maximized="1"
     inkscape:current-layer="svg8" />
  <path
     d="M 19.583867,-32.802114 H 4.8698033 L 4.5630606,-35.111421 C 4.4102861,-36.26188 3.6174008,-37.097052 2.6777148,-37.097052 H 0.22804515 c -0.19305808,0 -0.34958703,0.187617 -0.34958703,0.419018 0,0.231402 0.15652895,0.419019 0.34958703,0.419019 H 2.6777148 c 0.5940248,0 1.0965562,0.547506 1.1948776,1.288358 l 2.0524581,15.457848 c 0.057012,0.513952 0.4205968,0.899621 0.8531426,0.90494 h 0.5295015 c 0.1633568,0.942792 0.8236119,1.603646 1.6113779,1.603646 0.7875947,0 1.4478495,-0.660854 1.6113775,-1.603646 h 4.190606 c 0.163529,0.942792 0.823784,1.604056 1.611378,1.604056 0.910155,0 1.650638,-0.917422 1.650638,-2.045375 0,-1.127954 -0.740483,-2.045988 -1.650638,-2.045988 -0.800739,0 -1.470041,0.70648 -1.61923,1.649271 h -4.174902 c -0.14919,-0.942791 -0.8184907,-1.649885 -1.6192295,-1.649885 -0.8009097,0 -1.4702116,0.707094 -1.6194007,1.649885 H 6.7877522 c -0.087055,-0.0014 -0.1599434,-0.07938 -0.1708681,-0.182911 -3.496e-4,-0.0027 -6.817e-4,0.0022 -0.00103,0 l -0.373136,-2.802595 H 16.668025 c 0.802787,2.1e-4 1.498718,-0.666378 1.675218,-1.605282 l 1.581335,-8.230191 c 0.0239,-0.128079 -6.82e-4,-0.262091 -0.06725,-0.366232 -0.06521,-0.102708 -0.165747,-0.164907 -0.273458,-0.168998 z m -3.251091,12.545384 c 0.52455,0 0.951464,0.541777 0.951464,1.207747 0,0.665968 -0.426914,1.207542 -0.951464,1.207542 -0.524723,0 -0.951465,-0.541574 -0.951465,-1.207542 0,-0.665765 0.426742,-1.207747 0.951293,-1.207747 z m -7.4137035,0 c 0.5247212,0 0.9514634,0.541777 0.9514634,1.207747 0,0.665968 -0.4267422,1.207542 -0.9514634,1.207542 -0.5245515,0 -0.9514642,-0.541574 -0.9514642,-1.207542 0,-0.665765 0.4267422,-1.207747 0.9514642,-1.207747 z m 8.7429185,-3.977401 c -0.103783,0.559577 -0.515845,0.959569 -0.993967,0.964683 H 6.131423 l -1.1503257,-8.69463 H 19.144664 Z m 0,0"
     id="path2"
     inkscape:connector-curvature="0"
     style="stroke-width:0.04784143" />
  <path
     d="m 12.097276,-23.646728 c 1.811605,0 3.28028,-1.760164 3.28028,-3.931775 0,-2.171407 -1.468675,-3.93157 -3.28028,-3.93157 -1.811776,0 -3.2802804,1.760163 -3.2802804,3.93157 0.00205,2.170589 1.4693584,3.92932 3.2802804,3.931775 z m 0,-7.025309 c 1.425489,0 2.581106,1.385134 2.581106,3.093739 0,1.708604 -1.155617,3.093738 -2.581106,3.093738 -1.42566,0 -2.5811059,-1.385134 -2.5811059,-3.093943 0.00168,-1.707581 1.1562989,-3.091487 2.5811059,-3.093329 z m 0,0"
     id="path4"
     inkscape:connector-curvature="0"
     style="stroke-width:0.04784143" />
  <path
     d="m 10.396624,-27.250122 h 1.344749 v 1.622264 c 0,0.231401 0.156359,0.419019 0.349588,0.419019 0.193058,0 0.349586,-0.187618 0.349586,-0.419019 v -1.622264 h 1.35721 c 0.193229,0 0.349587,-0.187617 0.349587,-0.419018 0,-0.231401 -0.156359,-0.419018 -0.349587,-0.419018 h -1.35721 v -1.616536 c 0,-0.2314 -0.156528,-0.419018 -0.349586,-0.419018 -0.19323,0 -0.349588,0.187618 -0.349588,0.419018 v 1.616536 h -1.344749 c -0.193058,0 -0.349587,0.187617 -0.349587,0.419018 0,0.231401 0.156527,0.419018 0.349587,0.419018 z m 0,0"
     id="path6"
     inkscape:connector-curvature="0"
     style="stroke-width:0.04784143" />
</svg>
